<?xml version="1.0" encoding="utf-8"?>
<!-- Generator: Adobe Illustrator 26.0.1, SVG Export Plug-In . SVG Version: 6.00 Build 0)  -->
<svg version="1.1" id="Layer_1" xmlns="http://www.w3.org/2000/svg" xmlns:xlink="http://www.w3.org/1999/xlink" x="0px" y="0px"
	 viewBox="0 0 440.4 226.7" style="enable-background:new 0 0 440.4 226.7;" xml:space="preserve">
<style type="text/css">
	.st0{fill-rule:evenodd;clip-rule:evenodd;fill:#156839;}
	.st1{filter:url(#Adobe_OpacityMaskFilter);}
	.st2{fill-rule:evenodd;clip-rule:evenodd;fill:#FFFFFF;}
	.st3{mask:url(#mask-2_00000072258423686535446880000016758561858918335131_);fill-rule:evenodd;clip-rule:evenodd;fill:#156839;}
	.st4{filter:url(#Adobe_OpacityMaskFilter_00000178195966747903907240000001132072005303165848_);}
	.st5{mask:url(#mask-2_00000103971215475187194060000011173074731136602026_);fill-rule:evenodd;clip-rule:evenodd;fill:#156839;}
	.st6{filter:url(#Adobe_OpacityMaskFilter_00000138569732281473115470000010664021073514942097_);}
	.st7{mask:url(#mask-2_00000163782237279248512880000015187777566618376620_);fill-rule:evenodd;clip-rule:evenodd;fill:#156839;}
	.st8{filter:url(#Adobe_OpacityMaskFilter_00000086676476730651268350000016643930416576636804_);}
	.st9{mask:url(#mask-2_00000047755325561832637480000008840161634135043510_);fill-rule:evenodd;clip-rule:evenodd;fill:#156839;}
	.st10{filter:url(#Adobe_OpacityMaskFilter_00000139292797648260602170000016514151872112974250_);}
	.st11{mask:url(#mask-2_00000026161245486127845400000013648558724735248287_);fill-rule:evenodd;clip-rule:evenodd;fill:#156839;}
	.st12{filter:url(#Adobe_OpacityMaskFilter_00000021811652262515509220000016474392135905145532_);}
	.st13{mask:url(#mask-2_00000083789414034347461570000001802100726693216921_);fill-rule:evenodd;clip-rule:evenodd;fill:#156839;}
	.st14{fill-rule:evenodd;clip-rule:evenodd;fill:#FFFFFE;}
</style>
<g id="Desktop">
	<g id="SAUDI_MADE_main_horizontal_RGB" transform="translate(0.000000, 0.000000)">
		<path id="Fill-1" class="st0" d="M208.1,70.6c-1.4-1.1-2.8-1.9-4.1-2.5c-1.4-0.5-2.7-0.8-4-0.8c-1.6,0-3,0.4-4,1.2
			c-1,0.8-1.6,1.8-1.6,3c0,0.9,0.3,1.6,0.8,2.1c0.5,0.6,1.2,1,2,1.4c0.8,0.4,1.8,0.8,2.8,1.1c1.1,0.3,2.1,0.6,3.1,1
			c4.1,1.4,7.2,3.2,9.1,5.5c1.9,2.3,2.9,5.3,2.9,9c0,2.5-0.4,4.8-1.3,6.8c-0.8,2-2.1,3.7-3.7,5.2c-1.6,1.4-3.6,2.6-5.9,3.3
			c-2.3,0.8-5,1.2-8,1.2c-6.1,0-11.8-1.8-17.1-5.5l5.4-10.2c1.9,1.7,3.8,2.9,5.6,3.7c1.8,0.8,3.7,1.2,5.5,1.2c2.1,0,3.6-0.5,4.6-1.4
			c1-0.9,1.5-2,1.5-3.2c0-0.7-0.1-1.4-0.4-1.9c-0.3-0.5-0.7-1-1.3-1.5c-0.6-0.4-1.4-0.9-2.4-1.2c-1-0.4-2.1-0.8-3.5-1.3
			c-1.6-0.5-3.2-1.1-4.8-1.7c-1.6-0.6-3-1.4-4.2-2.5c-1.2-1-2.2-2.3-3-3.9c-0.8-1.6-1.1-3.6-1.1-6c0-2.4,0.4-4.6,1.2-6.5
			c0.8-2,1.9-3.6,3.4-5c1.4-1.4,3.2-2.5,5.3-3.3c2.1-0.8,4.4-1.2,7-1.2c2.4,0,4.9,0.3,7.5,1c2.6,0.7,5.1,1.6,7.5,2.9L208.1,70.6"/>
		<path id="Fill-2" class="st0" d="M249.3,88.7l-5.7-16.2L238,88.7H249.3z M252.7,98.3h-18.1l-2.9,8.5h-13.5L236.7,58h13.8
			l18.6,48.8h-13.5L252.7,98.3L252.7,98.3z"/>
		<path id="Fill-3" class="st0" d="M285.4,58v26.5c0,1.4,0.1,2.9,0.2,4.4c0.1,1.5,0.4,2.8,1,4c0.5,1.2,1.4,2.2,2.5,2.9
			c1.2,0.8,2.8,1.1,4.9,1.1c2.1,0,3.7-0.4,4.9-1.1c1.1-0.8,2-1.7,2.6-2.9c0.6-1.2,0.9-2.6,1-4c0.1-1.5,0.2-2.9,0.2-4.4V58h12.6v28.3
			c0,7.6-1.7,13.1-5.2,16.6c-3.5,3.5-8.8,5.2-16,5.2c-7.2,0-12.5-1.7-16-5.2c-3.5-3.5-5.2-9-5.2-16.6V58H285.4"/>
		<path id="Fill-4" class="st0" d="M338.1,96.1h2.9c2.2,0,4.2-0.3,5.9-1c1.7-0.7,3.2-1.6,4.4-2.8c1.2-1.2,2.1-2.6,2.7-4.3
			c0.6-1.7,0.9-3.5,0.9-5.5c0-1.9-0.3-3.7-1-5.4c-0.6-1.7-1.6-3.1-2.8-4.3c-1.2-1.2-2.6-2.2-4.4-2.8c-1.7-0.7-3.7-1-5.8-1h-2.9V96.1
			z M325.5,58h18.8c3.3,0,6.4,0.7,9.4,2c2.9,1.3,5.5,3.1,7.6,5.3c2.2,2.2,3.9,4.8,5.1,7.8c1.2,2.9,1.9,6,1.9,9.3
			c0,3.2-0.6,6.3-1.8,9.2c-1.2,3-2.9,5.6-5.1,7.8c-2.2,2.2-4.7,4-7.6,5.4c-2.9,1.3-6,2-9.4,2h-18.8V58L325.5,58z"/>
		<g id="Group-12" transform="translate(0.000000, 0.042000)">
			<g id="Clip-6">
			</g>
			<defs>
				<filter id="Adobe_OpacityMaskFilter" filterUnits="userSpaceOnUse" x="376.3" y="58" width="12.7" height="48.8">
					<feColorMatrix  type="matrix" values="1 0 0 0 0  0 1 0 0 0  0 0 1 0 0  0 0 0 1 0"/>
				</filter>
			</defs>
			
				<mask maskUnits="userSpaceOnUse" x="376.3" y="58" width="12.7" height="48.8" id="mask-2_00000072258423686535446880000016758561858918335131_">
				<g class="st1">
					<polygon id="path-1_00000018232401970844046770000013631740458459443359_" class="st2" points="51.2,56.8 389,56.8 389,169.4 
						51.2,169.4 					"/>
				</g>
			</mask>
			<polygon id="Fill-5" class="st3" points="376.3,106.8 389,106.8 389,58 376.3,58 			"/>
			<defs>
				
					<filter id="Adobe_OpacityMaskFilter_00000047038462372678692750000007257170771212354206_" filterUnits="userSpaceOnUse" x="179.2" y="120.8" width="61" height="48.6">
					<feColorMatrix  type="matrix" values="1 0 0 0 0  0 1 0 0 0  0 0 1 0 0  0 0 0 1 0"/>
				</filter>
			</defs>
			
				<mask maskUnits="userSpaceOnUse" x="179.2" y="120.8" width="61" height="48.6" id="mask-2_00000103971215475187194060000011173074731136602026_">
				<g style="filter:url(#Adobe_OpacityMaskFilter_00000047038462372678692750000007257170771212354206_);">
					<polygon id="path-1_00000035491722808425257640000014552097795033483941_" class="st2" points="51.2,56.8 389,56.8 389,169.4 
						51.2,169.4 					"/>
				</g>
			</mask>
			<polyline id="Fill-7" class="st5" points="219.4,120.8 209.7,146.7 199.9,120.8 187.4,120.8 179.2,169.4 191.7,169.4 
				195.9,141.4 206.8,169.4 211.9,169.4 223.4,141.4 227.5,169.4 240.1,169.4 231.9,120.8 219.4,120.8 			"/>
			<defs>
				
					<filter id="Adobe_OpacityMaskFilter_00000015312250890426058010000000979788588255500716_" filterUnits="userSpaceOnUse" x="247.1" y="120.8" width="50.8" height="48.6">
					<feColorMatrix  type="matrix" values="1 0 0 0 0  0 1 0 0 0  0 0 1 0 0  0 0 0 1 0"/>
				</filter>
			</defs>
			
				<mask maskUnits="userSpaceOnUse" x="247.1" y="120.8" width="50.8" height="48.6" id="mask-2_00000163782237279248512880000015187777566618376620_">
				<g style="filter:url(#Adobe_OpacityMaskFilter_00000015312250890426058010000000979788588255500716_);">
					<polygon id="path-1_00000145748388216555298260000007265388271954418049_" class="st2" points="51.2,56.8 389,56.8 389,169.4 
						51.2,169.4 					"/>
				</g>
			</mask>
			<path id="Fill-8" class="st7" d="M265.6,120.8l-18.5,48.6h13.5l2.9-8.5h18.1l2.9,8.5h13.5l-18.5-48.6H265.6z M272.5,135.2
				l5.7,16.2h-11.3L272.5,135.2L272.5,135.2z"/>
			<defs>
				
					<filter id="Adobe_OpacityMaskFilter_00000040549716763782815540000013332893496892002965_" filterUnits="userSpaceOnUse" x="307.1" y="120.8" width="42.6" height="48.6">
					<feColorMatrix  type="matrix" values="1 0 0 0 0  0 1 0 0 0  0 0 1 0 0  0 0 0 1 0"/>
				</filter>
			</defs>
			
				<mask maskUnits="userSpaceOnUse" x="307.1" y="120.8" width="42.6" height="48.6" id="mask-2_00000047755325561832637480000008840161634135043510_">
				<g style="filter:url(#Adobe_OpacityMaskFilter_00000040549716763782815540000013332893496892002965_);">
					<polygon id="path-1_00000101785762656013223540000014058941486987044519_" class="st2" points="51.2,56.8 389,56.8 389,169.4 
						51.2,169.4 					"/>
				</g>
			</mask>
			<path id="Fill-9" class="st9" d="M319.7,158.7h2.9c2.2,0,4.1-0.3,5.9-1c1.7-0.7,3.2-1.6,4.4-2.8c1.2-1.2,2.1-2.6,2.7-4.3
				c0.6-1.7,0.9-3.5,0.9-5.5c0-1.9-0.3-3.7-1-5.4c-0.6-1.7-1.6-3.1-2.7-4.3c-1.2-1.2-2.6-2.2-4.4-2.8c-1.7-0.7-3.7-1-5.8-1h-2.9
				V158.7z M307.1,120.8h18.7c3.3,0,6.4,0.7,9.3,2c2.9,1.3,5.4,3.1,7.6,5.3c2.2,2.2,3.9,4.8,5.1,7.7c1.2,2.9,1.9,6,1.9,9.3
				c0,3.2-0.6,6.2-1.8,9.2c-1.2,2.9-2.9,5.5-5.1,7.8c-2.2,2.2-4.7,4-7.6,5.4c-2.9,1.3-6,2-9.4,2h-18.7V120.8L307.1,120.8z"/>
			<defs>
				
					<filter id="Adobe_OpacityMaskFilter_00000106134079784835340680000007897653021251046317_" filterUnits="userSpaceOnUse" x="361.3" y="120.8" width="27.7" height="48.6">
					<feColorMatrix  type="matrix" values="1 0 0 0 0  0 1 0 0 0  0 0 1 0 0  0 0 0 1 0"/>
				</filter>
			</defs>
			
				<mask maskUnits="userSpaceOnUse" x="361.3" y="120.8" width="27.7" height="48.6" id="mask-2_00000026161245486127845400000013648558724735248287_">
				<g style="filter:url(#Adobe_OpacityMaskFilter_00000106134079784835340680000007897653021251046317_);">
					<polygon id="path-1_00000088115900228360688540000009104786940389415356_" class="st2" points="51.2,56.8 389,56.8 389,169.4 
						51.2,169.4 					"/>
				</g>
			</mask>
			<polyline id="Fill-10" class="st11" points="361.3,120.8 361.3,169.4 389,169.4 389,158.7 374,158.7 374,150.3 388.2,150.3 
				388.2,139.6 374,139.6 374,131.5 389,131.5 389,120.8 361.3,120.8 			"/>
			<defs>
				
					<filter id="Adobe_OpacityMaskFilter_00000047025153451280911870000009526531096569184174_" filterUnits="userSpaceOnUse" x="51.2" y="56.8" width="112.5" height="112.5">
					<feColorMatrix  type="matrix" values="1 0 0 0 0  0 1 0 0 0  0 0 1 0 0  0 0 0 1 0"/>
				</filter>
			</defs>
			
				<mask maskUnits="userSpaceOnUse" x="51.2" y="56.8" width="112.5" height="112.5" id="mask-2_00000083789414034347461570000001802100726693216921_">
				<g style="filter:url(#Adobe_OpacityMaskFilter_00000047025153451280911870000009526531096569184174_);">
					<polygon id="path-1_00000179605961244672232240000014859263885456935314_" class="st2" points="51.2,56.8 389,56.8 389,169.4 
						51.2,169.4 					"/>
				</g>
			</mask>
			<polygon id="Fill-11" class="st13" points="51.2,169.4 163.7,169.4 163.7,56.8 51.2,56.8 			"/>
		</g>
		<path id="Fill-13" class="st14" d="M134.6,109.8c6.1,8.1,9.5,13.9,9.5,13.9c-2.1,3.7-4.4,7.6-7,11.7c0,0-3.8-6.3-10.5-15.2
			c-3.4-4.5-12.1-14.4-12.2-14.5c0,0.2,0,43.4,0,47.5l0,0c0,0,0,0,0,0.1h-14.1c0-4.1,0-47.4,0-47.5c-0.1,0.1-8.8,10.1-12.2,14.5
			c-6.7,8.8-10.5,15.2-10.5,15.2c-2.6-4.2-4.9-8.1-7-11.7c0,0,3.4-5.9,9.5-13.9c2.7-3.6,9.2-10.9,10.9-12.8c-4.6,0.9-8.9,2-12.2,3
			c-3.1,1-5.5,2-7,2.8c-1.5,0.7-2.3,1.1-2.3,1.1c1-3.8,2.1-7.2,3.3-10.2c0,0,0.7-0.5,2.1-1.3c1.5-0.9,3.7-2,6.6-3.2
			c3.1-1.2,6.9-2.4,11.3-3.4c-0.1-0.1-2.9-2.3-4-3c-5.1-3.3-7-2.2-7-2.2c2.5-1.8,5.1-3.3,7.6-4.3c0,0,0.4-0.2,1.2-0.4
			c0.8-0.2,2.1-0.3,3.8,0c1.9,0.4,7.3,2.9,7.4,3c0-0.1,0.3-2.5,0.4-3.4c0.3-2.5,0.8-2.4,1.3-2.4h8.1c0.4,0,1-0.1,1.3,2.4
			c0.1,0.9,0.3,3.3,0.3,3.4c0.1-0.1,5.5-2.6,7.4-3c1.7-0.3,3-0.2,3.8,0c0.8,0.2,1.2,0.4,1.2,0.4c2.5,1,5.1,2.5,7.6,4.3
			c0,0-2-1.1-7,2.2c-1.1,0.7-3.9,2.9-4,3c4.4,0.9,8.2,2.1,11.3,3.4c2.9,1.2,5.1,2.3,6.6,3.2c1.4,0.8,2.1,1.3,2.1,1.3
			c1.2,3,2.3,6.4,3.3,10.2c0,0-0.8-0.4-2.3-1.1c-1.6-0.7-3.9-1.7-7-2.8c-3.2-1.1-7.5-2.2-12.2-3C125.4,98.8,131.9,106.2,134.6,109.8
			"/>
	</g>
</g>
</svg>
